<svg width="16" height="15" viewBox="0 0 16 15" fill="none" xmlns="http://www.w3.org/2000/svg">
<path d="M8.2639 0.292705C8.29384 0.200574 8.42418 0.200574 8.45411 0.292705L10.1327 5.45877C10.1461 5.49997 10.1845 5.52786 10.2278 5.52786H15.6597C15.7566 5.52786 15.7968 5.65183 15.7185 5.70877L11.324 8.90157C11.2889 8.92703 11.2742 8.97217 11.2876 9.01337L12.9662 14.1794C12.9961 14.2716 12.8907 14.3482 12.8123 14.2912L8.41779 11.0984C8.38274 11.073 8.33528 11.073 8.30023 11.0984L3.90572 14.2912C3.82735 14.3482 3.7219 14.2716 3.75183 14.1794L5.43039 9.01337C5.44378 8.97217 5.42911 8.92703 5.39406 8.90157L0.999546 5.70877C0.921175 5.65183 0.961452 5.52786 1.05832 5.52786H6.49024C6.53357 5.52786 6.57196 5.49997 6.58535 5.45877L8.2639 0.292705Z" fill="#D8ECFE"/>
</svg>
